<svg width="46" height="56" viewBox="0 0 46 56" fill="none" xmlns="http://www.w3.org/2000/svg">
<path d="M22.875 0.849365C28.9418 0.849365 34.7602 3.32543 39.0501 7.73285C43.34 12.1403 45.75 18.118 45.75 24.351C45.75 35.5809 38.3728 45.9178 23.8967 55.3811C23.5913 55.5804 23.2369 55.6862 22.875 55.6862C22.5131 55.6862 22.1587 55.5804 21.8532 55.3811C7.37719 45.9178 0 35.5809 0 24.351C0 18.118 2.41004 12.1403 6.69993 7.73285C10.9898 3.32543 16.8082 0.849365 22.875 0.849365ZM22.875 16.5172C20.8527 16.5172 18.9133 17.3425 17.4833 18.8116C16.0533 20.2808 15.25 22.2734 15.25 24.351C15.25 26.4287 16.0533 28.4213 17.4833 29.8904C18.9133 31.3596 20.8527 32.1849 22.875 32.1849C24.8973 32.1849 26.8367 31.3596 28.2667 29.8904C29.6967 28.4213 30.5 26.4287 30.5 24.351C30.5 22.2734 29.6967 20.2808 28.2667 18.8116C26.8367 17.3425 24.8973 16.5172 22.875 16.5172Z" fill="#F7A002"/>
</svg>
