<svg width="174" height="74" viewBox="0 0 174 74" fill="none" xmlns="http://www.w3.org/2000/svg">
<path fill-rule="evenodd" clip-rule="evenodd" d="M123.5 27.75H127.145V64.491H123.5V27.75Z" fill="#FCC35B"/>
<path fill-rule="evenodd" clip-rule="evenodd" d="M125.448 0.073967C116.054 0.073967 108.429 9.36097 108.429 20.8125C108.429 32.2732 116.054 41.551 125.448 41.551C134.846 41.551 142.467 32.2686 142.467 20.8125C142.467 9.35634 134.85 0.073967 125.448 0.073967ZM126.054 7.59422C123.014 7.58193 120.093 9.03525 117.935 11.6346C115.778 14.2339 114.559 17.7664 114.548 21.4553C114.548 24.5171 112.078 23.0556 112.078 18.4722C112.089 14.7833 113.307 11.2508 115.465 8.65146C117.623 6.05212 120.543 4.5988 123.584 4.61109C127.381 4.61109 128.593 7.59422 126.054 7.59422Z" fill="#FCC35B"/>
<path fill-rule="evenodd" clip-rule="evenodd" d="M131.541 51.5965V55.8793C140.984 57.0263 145.757 60.791 145.757 62.678C145.757 65.0321 138.563 69.6201 125.383 69.6201C112.196 69.6201 105.002 65.0321 105.002 62.678C105.002 60.6523 110.118 57.2159 119.329 56.1059V51.8185C110.259 52.7944 100.755 56.1568 100.755 62.7335C100.755 70.1243 113.141 73.9861 125.383 73.9861C137.618 73.9861 150.008 70.1243 150.008 62.7335C150.008 55.9718 140.248 52.5446 131.541 51.5965V51.5965Z" fill="#FCC35B"/>
<path d="M10.512 35.4934H0.192V27.9574H30.288V35.4934H20.016V61.5574H10.512V35.4934ZM43.2191 35.1094C47.5391 35.1094 50.8351 36.1014 53.1071 38.0854C55.3791 40.0374 56.5151 43.0454 56.5151 47.1094V61.5574H48.0191V58.1974C46.7071 60.7254 44.1471 61.9894 40.3391 61.9894C38.3231 61.9894 36.5791 61.6374 35.1071 60.9334C33.6351 60.2294 32.5151 59.2854 31.7471 58.1014C31.0111 56.8854 30.6431 55.5094 30.6431 53.9734C30.6431 51.5094 31.5871 49.6054 33.4751 48.2614C35.3631 46.8854 38.2751 46.1974 42.2111 46.1974H47.3951C47.2351 43.4454 45.3951 42.0694 41.8751 42.0694C40.6271 42.0694 39.3631 42.2774 38.0831 42.6934C36.8031 43.0774 35.7151 43.6214 34.8191 44.3254L31.7471 38.1334C33.1871 37.1734 34.9311 36.4374 36.9791 35.9254C39.0591 35.3814 41.1391 35.1094 43.2191 35.1094ZM42.8831 56.2294C43.9391 56.2294 44.8671 55.9734 45.6671 55.4614C46.4671 54.9494 47.0431 54.1974 47.3951 53.2054V50.9494H43.4591C40.8031 50.9494 39.4751 51.8294 39.4751 53.5894C39.4751 54.3894 39.7791 55.0294 40.3871 55.5094C40.9951 55.9894 41.8271 56.2294 42.8831 56.2294ZM78.7838 61.5574L74.1278 54.7414L69.1358 61.5574H59.2477L69.1358 48.5494L59.5358 35.5414H69.8078L74.4158 42.1174L79.2158 35.5414H88.8638L79.2638 48.2134L89.1998 61.5574H78.7838Z" fill="#FFC55A"/>
</svg>
