<svg width="61" height="63" viewBox="0 0 61 63" fill="none" xmlns="http://www.w3.org/2000/svg">
<path d="M58.1564 10.0809L50.2724 1.98839C49.7163 1.41449 49.0553 0.959133 48.3273 0.648489C47.5994 0.337844 46.8189 0.178029 46.0306 0.178223C44.4242 0.178223 42.914 0.82471 41.7814 1.98839L33.2978 10.7046C32.7392 11.2759 32.296 11.9551 31.9937 12.703C31.6913 13.4509 31.5357 14.2528 31.5359 15.0626C31.5359 16.7131 32.1652 18.2647 33.2978 19.4283L39.5014 25.8019C38.0492 29.0904 36.0303 32.0819 33.5421 34.6322C31.0601 37.1949 28.1486 39.2766 24.9474 40.7776L18.7439 34.404C18.1878 33.8301 17.5267 33.3748 16.7988 33.0641C16.0708 32.7535 15.2903 32.5937 14.5021 32.5939C12.8957 32.5939 11.3855 33.2403 10.2529 34.404L1.76187 43.1126C1.2026 43.685 0.759012 44.3654 0.456642 45.1147C0.154271 45.8639 -0.000917347 46.6672 4.07921e-06 47.4783C4.07921e-06 49.1287 0.629242 50.6803 1.76187 51.844L9.63105 59.9289C11.4373 61.7923 13.9321 62.8495 16.4934 62.8495C17.0338 62.8495 17.552 62.8038 18.0628 62.7126C28.0418 61.0241 37.9394 55.5708 45.927 47.3718C53.9072 39.1804 59.2076 29.0192 60.8732 18.7362C61.3766 15.595 60.3624 12.3626 58.1564 10.0809Z" fill="#F7A002"/>
</svg>
