<svg width="106" height="106" viewBox="0 0 106 106" fill="none" xmlns="http://www.w3.org/2000/svg">
<path d="M95.6794 35.0297C93.357 29.4867 89.9783 24.4485 85.7316 20.1959C81.4976 15.9359 76.4682 12.549 70.9289 10.2273C65.2543 7.8375 59.1572 6.61246 52.9999 6.625H52.7929C46.5302 6.65606 40.4746 7.89825 34.7708 10.3412C29.279 12.6866 24.2968 16.0796 20.1027 20.3305C15.8972 24.5735 12.5571 29.5941 10.2687 35.1125C7.89316 40.851 6.68947 47.0067 6.72846 53.2174C6.75951 60.4014 8.47787 67.5336 11.6869 73.9102V89.6445C11.6869 92.2738 13.8193 94.4063 16.4382 94.4063H32.1519C38.5582 97.6389 45.6276 99.3398 52.8033 99.375H53.0206C59.2109 99.375 65.2044 98.1742 70.8564 95.8244C76.3677 93.5305 81.3783 90.183 85.6074 85.9697C89.8722 81.7359 93.2261 76.7879 95.5759 71.2705C98.0085 65.5565 99.2507 59.4801 99.2818 53.207C99.3025 46.9029 98.081 40.7852 95.6794 35.0297ZM32.3382 57.9688C29.6054 57.9688 27.3798 55.7432 27.3798 53C27.3798 50.2568 29.6054 48.0313 32.3382 48.0313C35.071 48.0313 37.2966 50.2568 37.2966 53C37.2966 55.7432 35.0814 57.9688 32.3382 57.9688ZM52.9999 57.9688C50.2671 57.9688 48.0415 55.7432 48.0415 53C48.0415 50.2568 50.2671 48.0313 52.9999 48.0313C55.7328 48.0313 57.9583 50.2568 57.9583 53C57.9583 55.7432 55.7328 57.9688 52.9999 57.9688ZM73.6617 57.9688C70.9289 57.9688 68.7033 55.7432 68.7033 53C68.7033 50.2568 70.9289 48.0313 73.6617 48.0313C76.3945 48.0313 78.6201 50.2568 78.6201 53C78.6201 55.7432 76.3945 57.9688 73.6617 57.9688Z" fill="white"/>
</svg>
