<svg width="105" height="106" viewBox="0 0 105 106" fill="none" xmlns="http://www.w3.org/2000/svg">
<path d="M56.8073 35.3333C60.2345 35.3333 63.5213 36.7293 65.9446 39.2142C68.368 41.699 69.7294 45.0692 69.7294 48.5833C69.7294 49.7547 70.1832 50.8781 70.991 51.7064C71.7987 52.5347 72.8943 53 74.0367 53C75.1791 53 76.2747 52.5347 77.0825 51.7064C77.8903 50.8781 78.3441 49.7547 78.3441 48.5833C78.3441 42.7265 76.075 37.1095 72.0361 32.9681C67.9972 28.8266 62.5192 26.5 56.8073 26.5C55.665 26.5 54.5694 26.9653 53.7616 27.7936C52.9538 28.6219 52.5 29.7453 52.5 30.9167C52.5 32.088 52.9538 33.2114 53.7616 34.0397C54.5694 34.868 55.665 35.3333 56.8073 35.3333V35.3333Z" fill="white"/>
<path d="M56.8075 17.6667C64.8042 17.6667 72.4733 20.9239 78.1278 26.7219C83.7823 32.5199 86.9589 40.3837 86.9589 48.5833C86.9589 49.7547 87.4127 50.8781 88.2205 51.7064C89.0283 52.5347 90.1239 53 91.2663 53C92.4086 53 93.5042 52.5347 94.312 51.7064C95.1198 50.8781 95.5736 49.7547 95.5736 48.5833C95.5736 38.041 91.4893 27.9304 84.2193 20.4758C76.9492 13.0213 67.0889 8.83333 56.8075 8.83333C55.6651 8.83333 54.5696 9.29865 53.7618 10.1269C52.954 10.9552 52.5002 12.0786 52.5002 13.25C52.5002 14.4214 52.954 15.5448 53.7618 16.3731C54.5696 17.2013 55.6651 17.6667 56.8075 17.6667V17.6667ZM94.4968 70.2692C94.2599 69.5601 93.8509 68.9246 93.3083 68.4224C92.7658 67.9201 92.1075 67.5677 91.3955 67.3983L65.5514 61.3475C64.8499 61.1844 64.1198 61.204 63.4276 61.4046C62.7354 61.6052 62.1032 61.9804 61.5887 62.4958C60.9856 63.07 60.9426 63.1142 58.1428 68.5908C48.8527 64.2014 41.4088 56.5371 37.166 46.9933C42.6364 44.1667 42.6794 44.1667 43.2394 43.5042C43.7421 42.9766 44.108 42.3284 44.3036 41.6186C44.4992 40.9088 44.5184 40.1601 44.3593 39.4408L38.4582 13.25C38.293 12.5199 37.9494 11.8449 37.4596 11.2886C36.9698 10.7323 36.3499 10.3129 35.6585 10.07C34.6526 9.7016 33.6138 9.43532 32.5572 9.27499C31.4685 9.01616 30.3576 8.86822 29.2405 8.83333C23.9856 8.83333 18.9459 10.9738 15.2301 14.7839C11.5143 18.5941 9.42676 23.7617 9.42676 29.15C9.44955 47.182 16.4455 64.4687 28.8804 77.2192C41.3154 89.9698 58.1742 97.1433 75.7598 97.1667C78.3618 97.1667 80.9383 96.6412 83.3422 95.6202C85.7462 94.5991 87.9304 93.1026 89.7703 91.2161C91.6102 89.3295 93.0696 87.0898 94.0654 84.6248C95.0611 82.1599 95.5736 79.518 95.5736 76.85C95.5749 75.7258 95.4885 74.6034 95.3152 73.4933C95.1341 72.3963 94.8603 71.3175 94.4968 70.2692V70.2692Z" fill="white"/>
</svg>
