<svg width="61" height="61" viewBox="0 0 61 61" fill="none" xmlns="http://www.w3.org/2000/svg">
<path d="M54.7814 10.1665C54.5504 10.1427 54.3176 10.1427 54.0866 10.1665H6.6422C6.33812 10.1712 6.03605 10.2168 5.74414 10.3021L30.2289 34.6851L54.7814 10.1665Z" fill="#F7A002"/>
<path d="M57.2892 12.522L32.618 37.0914C31.9831 37.7226 31.1242 38.0769 30.2289 38.0769C29.3336 38.0769 28.4747 37.7226 27.8397 37.0914L3.38887 12.7084C3.31371 12.9846 3.27385 13.2693 3.27026 13.5556V47.4445C3.27026 48.3433 3.62731 49.2052 4.26285 49.8408C4.89839 50.4763 5.76036 50.8334 6.65915 50.8334H54.1036C55.0024 50.8334 55.8644 50.4763 56.4999 49.8408C57.1354 49.2052 57.4925 48.3433 57.4925 47.4445V13.5556C57.479 13.2026 57.4104 12.8538 57.2892 12.522ZM8.98054 47.4445H6.62526V45.0214L18.9439 32.8045L21.333 35.1936L8.98054 47.4445ZM54.0697 47.4445H51.6975L39.345 35.1936L41.7342 32.8045L54.0528 45.0214L54.0697 47.4445Z" fill="#F7A002"/>
</svg>
