<svg width="64" height="64" viewBox="0 0 64 64" fill="none" xmlns="http://www.w3.org/2000/svg">
<g clip-path="url(#clip0)">
<path d="M56.272 15.6821L48.3174 7.72754L33.5054 22.6636L41.4614 30.6191L56.272 15.6821Z" fill="#F7A002"/>
<path d="M26.3785 35.2895C25.7344 36.8359 27.2872 38.3867 28.8326 37.7407L38.3546 32.8149L31.2999 25.7602L26.3785 35.2895Z" fill="#F7A002"/>
<path d="M63.4507 8.50342C64.1831 7.771 64.1831 6.58399 63.4507 5.85156L58.148 0.549316C57.4155 -0.183105 56.2285 -0.183105 55.4961 0.549316L50.9692 5.07617L58.9234 13.0308L63.4507 8.50342Z" fill="#F7A002"/>
<path d="M5.625 52.625H7.5V62.125C7.5 62.8828 7.95606 63.5678 8.65723 63.8569C9.34815 64.1455 10.1592 63.9917 10.7007 63.4507L21.5264 52.625H43.375C46.4766 52.625 49 50.1015 49 47V28.3833L43.0855 34.2978C42.5693 34.8144 41.9668 35.2207 41.291 35.5044L30.5557 41.0708C29.5796 41.4922 28.8472 41.6406 28.1001 41.6406C27.542 41.6406 27.0039 41.5332 26.4839 41.375H13.125C12.0884 41.375 11.25 40.5361 11.25 39.5C11.25 38.4634 12.0884 37.625 13.125 37.625H22.6196C22.2495 36.3975 22.4082 35.0679 22.9185 33.8476L28.7046 22.6103C28.8691 22.1948 29.2759 21.5903 29.7905 21.0762L35.7417 15.125H5.625C2.52344 15.125 0 17.6484 0 20.75V47C0 50.1015 2.52344 52.625 5.625 52.625V52.625Z" fill="#F7A002"/>
</g>
<defs>
<clipPath id="clip0">
<rect width="64" height="64" fill="white"/>
</clipPath>
</defs>
</svg>
