<svg width="64" height="64" viewBox="0 0 64 64" fill="none" xmlns="http://www.w3.org/2000/svg">
<path d="M42.5599 32.002L62.3592 12.2028C64.5468 10.0151 64.5468 6.46849 62.3592 4.2843L59.7197 1.64481C57.5314 -0.543484 53.9847 -0.543484 51.8005 1.64481L32.002 21.4434L12.2028 1.64071C10.0151 -0.546902 6.46849 -0.546902 4.2843 1.64071L1.64071 4.28019C-0.546902 6.46849 -0.546902 10.0151 1.64071 12.1993L21.4434 32.002L1.64481 51.8005C-0.543484 53.9888 -0.543484 57.5355 1.64481 59.7197L4.2843 62.3592C6.47191 64.5468 10.0186 64.5468 12.2028 62.3592L32.002 42.5599L51.8005 62.3592C53.9888 64.5468 57.5355 64.5468 59.7197 62.3592L62.3592 59.7197C64.5468 57.5314 64.5468 53.9847 62.3592 51.8005L42.5599 32.002Z" fill="#F7A002"/>
</svg>
