<svg width="64" height="64" viewBox="0 0 64 64" fill="none" xmlns="http://www.w3.org/2000/svg">
<g clip-path="url(#clip0)">
<path d="M44.2537 3.95275H7.2375C3.24625 3.95275 0 7.199 0 11.1902V43.6277C0 45.164 1.73737 46.03 2.96375 45.154L13.2725 37.799C14.1375 37.1827 15.155 36.8565 16.2175 36.8565H38.8913C42.8825 36.8565 46.1287 33.6102 46.1287 29.619V5.82775C46.1287 4.79275 45.2887 3.95275 44.2537 3.95275V3.95275ZM35.1463 26.6665H13.4825C12.4475 26.6665 11.6075 25.8277 11.6075 24.7915C11.6075 23.7565 12.4475 22.9165 13.4825 22.9165H35.1463C36.1813 22.9165 37.0213 23.7565 37.0213 24.7915C37.0213 25.8277 36.1813 26.6665 35.1463 26.6665ZM35.1463 17.9165H13.4825C12.4475 17.9165 11.6075 17.0777 11.6075 16.0415C11.6075 15.0065 12.4475 14.1665 13.4825 14.1665H35.1463C36.1813 14.1665 37.0213 15.0065 37.0213 16.0415C37.0213 17.0777 36.1813 17.9165 35.1463 17.9165Z" fill="#F7A002"/>
<path d="M63.9998 25.734V58.1702C63.9998 59.6961 62.2712 60.5787 61.0361 59.6965L50.7273 52.3427C49.8623 51.7265 48.8448 51.4002 47.7823 51.4002H25.1086C21.1173 51.4002 17.8711 48.1527 17.8711 44.1615V40.6065H38.8911C44.9498 40.6065 49.8786 35.6777 49.8786 29.619V18.4952H56.7623C60.7536 18.4952 63.9998 21.7427 63.9998 25.734V25.734Z" fill="#F7A002"/>
</g>
<defs>
<clipPath id="clip0">
<rect width="64" height="64" fill="white"/>
</clipPath>
</defs>
</svg>
