<svg width="173" height="161" viewBox="0 0 173 161" fill="none" xmlns="http://www.w3.org/2000/svg">
<path d="M169 80.5C169 122.484 132.339 157 86.5 157C40.6608 157 4 122.484 4 80.5C4 38.5162 40.6608 4 86.5 4C132.339 4 169 38.5162 169 80.5Z" fill="#F7A002" stroke="#F7F7F7" stroke-width="8"/>
<g clip-path="url(#clip0)">
<path d="M155.777 90.992V85.8065C155.777 78.6571 149.961 72.8407 142.812 72.8407H132.397C132.328 72.6871 132.241 72.5393 132.13 72.4022L120.531 58.1147C120.514 58.0937 120.496 58.0732 120.479 58.0529C119.041 56.4239 116.972 55.4897 114.8 55.4897H91.0363C89.9466 55.4897 89.0632 56.3732 89.0632 57.4628C89.0632 58.5525 89.9466 59.4359 91.0363 59.4359H92.7431V72.8407H78.5835V59.4359H83.1437C84.2334 59.4359 85.1168 58.5525 85.1168 57.4628C85.1168 56.3732 84.2334 55.4897 83.1437 55.4897H42.6067C37.1097 55.4897 32.6374 59.9621 32.6374 65.4593V72.8407H32.4882C29.0337 72.8407 26.223 75.6515 26.223 79.1062V90.992C24.9334 91.4214 24 92.6373 24 94.0692V98.4192C24 100.208 25.4556 101.664 27.2448 101.664H34.8033C34.8427 101.664 34.8814 101.66 34.9203 101.658C36.6272 106.793 41.4941 110.51 47.2203 110.51C52.9443 110.51 57.8094 106.796 59.5181 101.664H83.2376C84.3273 101.664 85.2107 100.78 85.2107 99.6907C85.2107 98.601 84.3273 97.7176 83.2376 97.7176H60.1718C60.1721 97.6855 60.1742 97.6537 60.1742 97.6216C60.1742 96.6416 60.06 95.6882 59.8509 94.7703H115.294C115.085 95.6882 114.971 96.6416 114.971 97.6216C114.971 97.6537 114.973 97.6855 114.973 97.7176H91.1302C90.0406 97.7176 89.1571 98.601 89.1571 99.6907C89.1571 100.78 90.0406 101.664 91.1302 101.664H115.627C117.336 106.796 122.201 110.51 127.925 110.51C133.649 110.51 138.514 106.796 140.223 101.664H154.755C156.545 101.664 158 100.208 158 98.4192V94.0692C158 92.6376 157.067 91.4214 155.777 90.992ZM145.42 77.1728C148.191 78.0118 150.401 80.1503 151.34 82.8769H147.074C146.162 82.8769 145.42 82.1345 145.42 81.2219V77.1728ZM96.6893 59.4359H114.8C115.828 59.4359 116.808 59.8731 117.496 60.6369L127.403 72.8407H96.6893V59.4359ZM59.3384 59.4359H74.6376V72.8407H59.3384V59.4359ZM44.4758 65.4593C44.4758 62.3669 46.7904 59.7918 49.86 59.4693C49.9307 59.4619 49.9999 59.4504 50.0678 59.4359H55.3922V72.8407H44.4758V65.4593ZM36.5835 65.4593C36.5835 62.1593 39.2514 59.4719 42.543 59.4375C41.275 61.1146 40.5297 63.2034 40.5297 65.4593V72.8407H36.5835V65.4593ZM27.9462 97.7179V94.7706H34.5896C34.3805 95.6885 34.2663 96.6419 34.2663 97.6218C34.2663 97.6539 34.2684 97.6858 34.2687 97.7179H27.9462ZM47.2203 106.564C42.2534 106.564 38.2125 102.553 38.2125 97.6218C38.2125 92.691 42.2534 88.6796 47.2203 88.6796C52.1872 88.6796 56.228 92.691 56.228 97.6218C56.228 102.553 52.1872 106.564 47.2203 106.564ZM47.2203 84.7334C42.5835 84.7334 38.5103 87.1711 36.2213 90.8244H30.1692V79.1062C30.1692 77.8274 31.2096 76.7869 32.4882 76.7869H92.7431V90.8244H58.2193C55.93 87.1711 51.8567 84.7334 47.2203 84.7334ZM127.925 106.564C122.958 106.564 118.917 102.553 118.917 97.6218C118.917 92.691 122.958 88.6796 127.925 88.6796C132.892 88.6796 136.933 92.691 136.933 97.6218C136.933 102.553 132.892 106.564 127.925 106.564ZM127.925 84.7334C123.288 84.7334 119.215 87.1711 116.926 90.8244H96.6896V76.7869H141.474V81.2219C141.474 84.3104 143.986 86.823 147.075 86.823H151.831V90.8244H139.298C139.178 90.8244 139.06 90.8368 138.946 90.8576C136.66 87.1856 132.576 84.7334 127.925 84.7334ZM154.054 97.7179H140.877C140.877 97.6858 140.879 97.6539 140.879 97.6218C140.879 96.6419 140.765 95.6885 140.556 94.7706H154.054V97.7179Z" fill="white"/>
<path d="M127.925 91.8191C124.713 91.8191 122.099 94.4222 122.099 97.6218C122.099 100.821 124.713 103.424 127.925 103.424C131.137 103.424 133.751 100.821 133.751 97.6218C133.751 94.4222 131.137 91.8191 127.925 91.8191ZM127.925 99.4781C126.888 99.4781 126.045 98.6454 126.045 97.6215C126.045 96.5979 126.888 95.765 127.925 95.765C128.961 95.765 129.805 96.5979 129.805 97.6215C129.804 98.6454 128.961 99.4781 127.925 99.4781Z" fill="white"/>
<path d="M47.2202 91.8191C44.0081 91.8191 41.3947 94.4222 41.3947 97.6218C41.3947 100.821 44.0081 103.424 47.2202 103.424C50.4324 103.424 53.0461 100.821 53.0461 97.6218C53.0458 94.4222 50.4324 91.8191 47.2202 91.8191ZM47.2202 99.4781C46.184 99.4781 45.3408 98.6454 45.3408 97.6215C45.3408 96.5979 46.184 95.765 47.2202 95.765C48.2565 95.765 49.0999 96.5979 49.0999 97.6215C49.0997 98.6454 48.2565 99.4781 47.2202 99.4781Z" fill="#FBF8F8"/>
<path d="M73.7203 78.5645H71.0834C69.9938 78.5645 69.1104 79.4479 69.1104 80.5375C69.1104 81.6272 69.9938 82.5106 71.0834 82.5106H73.7203C74.8099 82.5106 75.6933 81.6272 75.6933 80.5375C75.6933 79.4479 74.8099 78.5645 73.7203 78.5645Z" fill="#FCFCFC"/>
<path d="M105.449 77.8589H102.812C101.722 77.8589 100.839 78.7423 100.839 79.832C100.839 80.9216 101.722 81.805 102.812 81.805H105.449C106.539 81.805 107.422 80.9216 107.422 79.832C107.422 78.7423 106.539 77.8589 105.449 77.8589Z" fill="white"/>
</g>
<defs>
<clipPath id="clip0">
<rect width="134" height="134" fill="white" transform="translate(24 16)"/>
</clipPath>
</defs>
</svg>
