<svg width="121" height="122" viewBox="0 0 121 122" fill="none" xmlns="http://www.w3.org/2000/svg">
<path d="M49.2922 15.9049L46.8264 23.4229H36.1358C31.174 23.4229 26.7534 26.6556 25.3288 31.4107L20.1602 48.6794L12.8753 46.2135L10.5297 53.2579L17.9273 55.7275L15.578 63.7153C15.4879 64.0599 15.4486 64.4157 15.4614 64.7716V94.8434C15.4614 96.9109 17.153 98.6024 19.2204 98.6024H30.4974L31.7904 94.8434H89.3479L90.641 98.6024H101.918C103.985 98.6024 105.677 96.9109 105.677 94.8434V91.6708C105.692 91.4829 105.692 91.2761 105.677 91.0844V64.7716C105.69 64.4157 105.65 64.0599 105.56 63.7153L103.211 55.7275L110.609 53.2616L108.259 46.2098L100.978 48.6794L95.8096 31.4107C95.1053 29.0949 93.674 27.0676 91.7275 25.6289C89.7811 24.1902 87.423 23.4167 85.0025 23.4229H74.312L71.8461 15.9049H49.2922ZM36.1358 30.9408H85.0025C86.6753 30.9408 88.1601 32.0422 88.645 33.6435L93.4602 49.7357H27.6781L32.4934 33.6435C32.982 32.0272 34.4631 30.9408 36.1358 30.9408ZM25.4453 57.2537H95.6931L98.159 65.4783V87.3255H22.9794V65.4745L25.4453 57.2537ZM32.3768 61.0126C30.8814 61.0126 29.4473 61.6067 28.3898 62.6641C27.3324 63.7215 26.7384 65.1557 26.7384 66.6511C26.7384 68.1465 27.3324 69.5807 28.3898 70.6381C29.4473 71.6955 30.8814 72.2896 32.3768 72.2896C33.8723 72.2896 35.3064 71.6955 36.3638 70.6381C37.4213 69.5807 38.0153 68.1465 38.0153 66.6511C38.0153 65.1557 37.4213 63.7215 36.3638 62.6641C35.3064 61.6067 33.8723 61.0126 32.3768 61.0126ZM88.7615 61.0126C87.2661 61.0126 85.8319 61.6067 84.7745 62.6641C83.7171 63.7215 83.123 65.1557 83.123 66.6511C83.123 68.1465 83.7171 69.5807 84.7745 70.6381C85.8319 71.6955 87.2661 72.2896 88.7615 72.2896C90.2569 72.2896 91.6911 71.6955 92.7485 70.6381C93.8059 69.5807 94.4 68.1465 94.4 66.6511C94.4 65.1557 93.8059 63.7215 92.7485 62.6641C91.6911 61.6067 90.2569 61.0126 88.7615 61.0126ZM45.5333 72.2896L40.8345 83.5665H48.9389L50.5853 79.8075H70.553L72.1995 83.5665H80.3038L75.6051 72.2896H45.5333Z" fill="#F7A002"/>
</svg>
