<svg width="121" height="121" viewBox="0 0 121 121" fill="none" xmlns="http://www.w3.org/2000/svg">
<path d="M83.0708 11.3201C70.6662 11.3201 60.517 21.4693 60.517 33.8739C60.517 37.6028 61.9567 41.4069 63.8061 45.6207C65.7644 50.0049 67.9604 54.2789 70.3843 58.4238C73.4004 63.5962 76.6142 68.6507 80.0185 73.5762L83.0708 78.0419L86.1269 73.5762C86.1269 73.5762 90.9722 66.6785 95.7574 58.4276C98.1814 54.2814 100.377 50.0061 102.336 45.6207C104.185 41.4069 105.625 37.6028 105.625 33.8739C105.625 21.4693 95.4754 11.3201 83.0708 11.3201ZM45.3645 18.605L15.4092 31.408V103.528L45.5976 90.4916L75.6694 101.769L105.625 88.9617V56.191C103.294 60.5972 100.786 64.9072 98.1067 69.1106V84.03L79.3118 92.0178V85.9094L73.7899 77.9216C73.2035 77.0683 72.5119 76.0572 71.7939 74.9821V92.3674L49.24 83.9097V28.0024L53.3524 29.5323C53.703 27.0286 54.3738 24.5802 55.3484 22.2474L45.3645 18.605ZM83.0708 18.838C91.412 18.838 98.1067 25.5328 98.1067 33.8739C98.1067 35.3287 97.1971 38.7606 95.5206 42.5684C93.8478 46.3688 91.4834 50.6878 89.1792 54.6648C86.1118 59.95 84.7887 61.8294 83.0708 64.4156C81.353 61.8294 80.0298 59.95 76.9625 54.6648C74.6582 50.6878 72.2938 46.3688 70.6173 42.5647C68.9446 38.7681 68.0349 35.3287 68.0349 33.8739C68.0349 25.5328 74.7297 18.838 83.0708 18.838ZM41.7221 28.2355V84.0337L22.9272 92.0215V36.3398L41.7221 28.2355ZM83.0708 28.2355C81.5754 28.2355 80.1413 28.8295 79.0838 29.8869C78.0264 30.9443 77.4324 32.3785 77.4324 33.8739C77.4324 35.3693 78.0264 36.8035 79.0838 37.8609C80.1413 38.9183 81.5754 39.5124 83.0708 39.5124C84.5662 39.5124 86.0004 38.9183 87.0578 37.8609C88.1152 36.8035 88.7093 35.3693 88.7093 33.8739C88.7093 32.3785 88.1152 30.9443 87.0578 29.8869C86.0004 28.8295 84.5662 28.2355 83.0708 28.2355Z" fill="#F7A002"/>
</svg>
