<svg width="39" height="39" viewBox="0 0 39 39" fill="none" xmlns="http://www.w3.org/2000/svg">
<path d="M33.7289 8.76738L29.6728 4.71504C29.3866 4.42766 29.0465 4.19964 28.672 4.04408C28.2975 3.88852 27.896 3.8085 27.4904 3.80859C26.664 3.80859 25.887 4.13232 25.3043 4.71504L20.9396 9.07969C20.6523 9.36581 20.4242 9.7059 20.2687 10.0804C20.1131 10.4549 20.0331 10.8565 20.0332 11.262C20.0332 12.0885 20.3569 12.8654 20.9396 13.4481L24.1313 16.6397C23.3842 18.2864 22.3455 19.7845 21.0653 21.0615C19.7884 22.3448 18.2905 23.3872 16.6436 24.1389L13.452 20.9473C13.1658 20.6599 12.8257 20.4319 12.4512 20.2763C12.0767 20.1208 11.6752 20.0407 11.2696 20.0408C10.4432 20.0408 9.66621 20.3646 9.0835 20.9473L4.71504 25.3081C4.42731 25.5948 4.19909 25.9355 4.04353 26.3107C3.88796 26.6858 3.80812 27.0881 3.8086 27.4942C3.8086 28.3207 4.13233 29.0977 4.71504 29.6804L8.76358 33.7289C9.69287 34.662 10.9764 35.1914 12.2941 35.1914C12.5722 35.1914 12.8388 35.1686 13.1016 35.1229C18.2355 34.2773 23.3276 31.5466 27.4371 27.4409C31.5428 23.3391 34.2697 18.2508 35.1267 13.1016C35.3856 11.5286 34.8639 9.90996 33.7289 8.76738Z" fill="#FCC35B"/>
</svg>
