<svg width="41" height="41" viewBox="0 0 41 41" fill="none" xmlns="http://www.w3.org/2000/svg">
<path d="M20.5 2.5625C10.5943 2.5625 2.5625 10.5943 2.5625 20.5C2.5625 30.4057 10.5943 38.4375 20.5 38.4375C30.4057 38.4375 38.4375 30.4057 38.4375 20.5C38.4375 10.5943 30.4057 2.5625 20.5 2.5625ZM20.5 35.3945C12.276 35.3945 5.60547 28.724 5.60547 20.5C5.60547 12.276 12.276 5.60547 20.5 5.60547C28.724 5.60547 35.3945 12.276 35.3945 20.5C35.3945 28.724 28.724 35.3945 20.5 35.3945Z" fill="#F7A002"/>
<path d="M27.4948 25.5689L21.7853 21.4409V11.5312C21.7853 11.3551 21.6411 11.2109 21.4649 11.2109H19.5391C19.3629 11.2109 19.2188 11.3551 19.2188 11.5312V22.558C19.2188 22.6621 19.2668 22.7582 19.3509 22.8183L25.9733 27.647C26.1175 27.7511 26.3177 27.719 26.4218 27.5789L27.5669 26.0174C27.671 25.8692 27.639 25.669 27.4948 25.5689Z" fill="#F7A002"/>
</svg>
