<svg width="230" height="231" viewBox="0 0 230 231" fill="none" xmlns="http://www.w3.org/2000/svg">
<ellipse cx="115" cy="115.5" rx="115" ry="115.5" fill="#F7A002"/>
<path d="M147.986 66.5078C147.986 54.8159 133.59 46 114.5 46C95.4096 46 81.0137 54.8159 81.0137 66.5078C81.0137 68.7735 82.6796 70.6094 84.7344 70.6094H144.266C146.32 70.6094 147.986 68.7735 147.986 66.5078Z" fill="white"/>
<path d="M106.385 162.108L109.394 157.687L105.04 153.724L106.385 162.108Z" fill="white"/>
<path d="M118.822 186L120.839 173.165L114.5 163.848L108.161 173.165L110.178 186H118.822Z" fill="white"/>
<path d="M123.959 153.726L119.606 157.687L122.614 162.108L123.959 153.726Z" fill="white"/>
<path d="M94.7664 136.788L92.7753 137.148C77.3366 139.932 66.1309 154.384 66.1309 171.515V186H102.624L94.7664 136.788Z" fill="white"/>
<path d="M162.869 171.515C162.869 154.384 151.663 139.932 136.225 137.148L134.232 136.788L126.376 186H162.869V171.515Z" fill="white"/>
<path d="M126.827 135.862C125.239 136.218 123.627 136.508 121.941 136.508H107.059C105.373 136.508 103.76 136.218 102.172 135.862L103.039 141.263L114.5 151.696L125.96 141.265L126.827 135.862Z" fill="white"/>
<path d="M107.059 128.305H121.941C132.199 128.305 140.545 119.104 140.545 107.797V97.0388C138.347 98.4517 135.826 99.3204 133.104 99.3204H95.8965C93.1737 99.3204 90.6528 98.4517 88.4551 97.0388V107.797C88.4551 119.104 96.8011 128.305 107.059 128.305Z" fill="white"/>
<path d="M95.8965 91.1172H133.104C137.213 91.1172 140.545 87.4446 140.545 82.9141V78.8125H88.4551V82.9141C88.4551 87.4446 91.7866 91.1172 95.8965 91.1172Z" fill="white"/>
</svg>
