<svg width="230" height="231" viewBox="0 0 230 231" fill="none" xmlns="http://www.w3.org/2000/svg">
<ellipse cx="115" cy="115.5" rx="115" ry="115.5" fill="#F7A002"/>
<path d="M168.723 66.9394L116.821 49.3195C116.195 49.1065 115.355 49 114.515 49C113.675 49 112.835 49.1065 112.209 49.3195L60.3064 66.9394C59.0387 67.3654 58 68.8261 58 70.1651V143.566C58 144.905 58.8706 146.67 59.9246 147.507L112.575 188.376C113.11 188.787 113.797 189 114.5 189C115.202 189 115.905 188.787 116.424 188.376L169.075 147.507C170.129 146.685 170.999 144.92 170.999 143.566V70.1651C171.03 68.8261 169.991 67.3806 168.723 66.9394ZM142.391 92.9278L109.917 137.464C109.689 137.776 109.39 138.029 109.045 138.203C108.7 138.378 108.319 138.469 107.932 138.469C107.545 138.469 107.163 138.378 106.818 138.203C106.473 138.029 106.174 137.776 105.946 137.464L86.6393 110.989C86.0589 110.182 86.6393 109.057 87.6322 109.057H96.0636C96.8426 109.057 97.591 109.437 98.0492 110.061L107.932 123.603L130.981 91.9845C131.439 91.3606 132.172 90.9802 132.966 90.9802H141.398C142.391 90.9954 142.971 92.1214 142.391 92.9278Z" fill="white"/>
</svg>
