<svg width="62" height="63" viewBox="0 0 62 63" fill="none" xmlns="http://www.w3.org/2000/svg">
<path d="M56.5508 7.50586H19.9805C16.9749 7.50586 14.5312 9.99018 14.5312 13.043C14.5312 16.097 16.9749 18.5801 19.9805 18.5801H56.5508C59.5551 18.5801 62 16.097 62 13.043C62 9.99018 59.5551 7.50586 56.5508 7.50586Z" fill="#F7A002"/>
<path d="M56.5508 25.9629H19.9805C16.9749 25.9629 14.5312 28.4472 14.5312 31.5C14.5312 34.554 16.9749 37.0371 19.9805 37.0371H56.5508C59.5551 37.0371 62 34.554 62 31.5C62 28.4472 59.5551 25.9629 56.5508 25.9629Z" fill="#F7A002"/>
<path d="M56.5508 44.4199H19.9805C16.9749 44.4199 14.5312 46.9042 14.5312 49.957C14.5312 53.0111 16.9749 55.4941 19.9805 55.4941H56.5508C59.5551 55.4941 62 53.0111 62 49.957C62 46.9042 59.5551 44.4199 56.5508 44.4199Z" fill="#F7A002"/>
<path d="M5.44922 7.50586C2.44367 7.50586 0 9.99018 0 13.043C0 16.097 2.44367 18.5801 5.44922 18.5801C8.45355 18.5801 10.8984 16.097 10.8984 13.043C10.8984 9.99018 8.45355 7.50586 5.44922 7.50586Z" fill="#F7A002"/>
<path d="M5.44922 25.9629C2.44367 25.9629 0 28.4472 0 31.5C0 34.554 2.44367 37.0371 5.44922 37.0371C8.45355 37.0371 10.8984 34.554 10.8984 31.5C10.8984 28.4472 8.45355 25.9629 5.44922 25.9629Z" fill="#F7A002"/>
<path d="M5.44922 44.4199C2.44367 44.4199 0 46.9042 0 49.957C0 53.0111 2.44367 55.4941 5.44922 55.4941C8.45355 55.4941 10.8984 53.0111 10.8984 49.957C10.8984 46.9042 8.45355 44.4199 5.44922 44.4199Z" fill="#F7A002"/>
</svg>
