<svg width="173" height="161" viewBox="0 0 173 161" fill="none" xmlns="http://www.w3.org/2000/svg">
<path d="M169 80.5C169 122.484 132.339 157 86.5 157C40.6608 157 4 122.484 4 80.5C4 38.5162 40.6608 4 86.5 4C132.339 4 169 38.5162 169 80.5Z" fill="#F7A002" stroke="#F7F7F7" stroke-width="8"/>
<path d="M144.458 78.3097C141.092 76.4903 137.559 75.0139 133.958 73.9215C133.026 73.6396 132.049 74.1915 131.776 75.1558C131.503 76.1201 132.037 77.131 132.969 77.4136C136.35 78.4393 139.668 79.8259 142.831 81.5354C143.181 81.7244 143.508 81.9447 143.815 82.1868C141.895 82.2067 140.008 82.2901 138.544 82.5832C135.273 83.2384 134.586 84.9603 134.586 86.2892C134.586 90.0283 139.451 93.3083 144.997 93.3083C145.499 93.3083 145.995 93.287 146.485 93.253V94.9584H137.389C135.268 91.7671 131.717 89.6695 127.7 89.6695C123.683 89.6695 120.132 91.7671 118.011 94.9584H67.5438C65.4229 91.7671 61.8719 89.6695 57.8551 89.6695C53.8384 89.6695 50.2874 91.7671 48.1667 94.9584H33.5159V90.6233H35.8831C36.8539 90.6233 37.6409 89.809 37.6409 88.8039V87.4309H41.675C44.0593 87.4309 45.9992 85.4232 45.9992 82.9553V81.3892C45.9992 80.4651 45.7283 79.577 45.2159 78.8204L41.637 73.5356H45.8886C46.4893 73.5356 47.0487 73.2178 47.3715 72.6933C49.5648 69.128 52.851 65.862 57.1384 62.9861C59.8204 61.187 62.7201 59.8351 65.7592 58.9377C65.2241 59.2558 64.6968 59.5859 64.1802 59.9326C60.8237 62.1846 57.9889 64.6978 55.7549 67.4022C54.827 68.5256 54.6071 70.0612 55.1809 71.41C55.7507 72.7491 56.9835 73.6115 58.3986 73.661C58.3986 73.661 114.946 75.6383 114.963 75.6386C114.98 75.6386 114.996 75.6371 115.014 75.6366C115.062 75.6354 115.109 75.6335 115.156 75.6284L115.162 75.6281C118.457 75.2548 121.855 75.2919 125.264 75.7385C126.229 75.8659 127.107 75.1587 127.229 74.1619C127.351 73.1651 126.669 72.2547 125.706 72.1285C122.301 71.6824 118.902 71.615 115.588 71.9272C112.815 69.2483 110.102 66.6642 107.517 64.2378C101.32 58.4268 93.3148 54.9719 84.9757 54.5095L76.7932 54.0559C69.0548 53.6284 61.5965 55.6601 55.2261 59.9328C50.8447 62.8716 47.3902 66.22 44.9445 69.897C39.0982 69.9232 38.5782 69.8409 37.9606 69.9581C35.7919 70.3062 34.125 72.2469 34.125 74.5886V85.5906C34.125 85.5976 34.1241 85.6046 34.1241 85.6117C34.1241 85.6187 34.125 85.6258 34.125 85.6328V86.9847H32.4656C31.106 86.9847 30 88.1285 30 89.5344V100.667C30 101.879 30.8337 102.931 31.977 103.166L46.9222 106.291C48.6439 110.8 52.8938 114 57.8549 114C62.5145 114 66.5493 111.179 68.4492 107.101H74.9325C75.9032 107.101 76.6903 106.286 76.6903 105.281C76.6903 104.276 75.9032 103.462 74.9325 103.462H69.5001C69.5692 102.929 69.6081 102.387 69.6081 101.835C69.6081 100.714 69.4579 99.6292 69.1823 98.5977H116.372C116.097 99.6292 115.947 100.714 115.947 101.835C115.947 102.387 115.986 102.929 116.055 103.462H83.1356C82.1648 103.462 81.3778 104.276 81.3778 105.281C81.3778 106.286 82.1648 107.101 83.1356 107.101H117.106C119.005 111.179 123.04 114 127.7 114C132.359 114 136.394 111.179 138.294 107.101H143.649C147.152 107.101 150.001 104.151 150.001 100.526V87.7637C150.001 83.7792 147.877 80.1571 144.458 78.3097ZM58.3984 69.9428C58.3586 69.8494 58.4033 69.7956 58.427 69.7665C63.3639 63.7903 71.076 58.9336 79.9483 57.8742L83.6149 58.0775C84.1992 60.3178 84.9891 65.7118 83.6051 70.901L58.5175 70.0236C58.4772 70.0221 58.4315 70.0207 58.3984 69.9428ZM110.328 71.8357L87.1959 71.0267C88.2556 66.3379 87.9103 61.5 87.2904 58.3837C93.9125 59.2834 100.18 62.2668 105.156 66.9335C106.832 68.5062 108.562 70.1466 110.328 71.8357ZM42.4836 81.3889V82.9551C42.4836 83.4165 42.121 83.7918 41.675 83.7918H37.6409V74.5882C37.6409 74.4232 37.681 74.2692 37.7464 74.1299L42.3371 80.9088C42.4327 81.05 42.4836 81.2162 42.4836 81.3889ZM33.5159 99.775V98.5973H46.528C46.1942 99.8468 46.0576 101.113 46.1162 102.41L33.5159 99.775ZM57.8551 110.36C53.3131 110.36 49.6177 106.536 49.6177 101.834C49.6177 97.1332 53.3131 93.3083 57.8551 93.3083C62.3973 93.3083 66.0927 97.1332 66.0927 101.834C66.0927 106.536 62.3973 110.36 57.8551 110.36ZM144.997 89.6692C141.024 89.6692 138.419 87.5616 138.129 86.4782C138.857 86.0411 141.164 85.8198 144.997 85.8198C145.413 85.8198 145.825 85.8351 146.233 85.8628C146.398 86.4719 146.485 87.1099 146.485 87.763V89.6083C145.998 89.6486 145.501 89.6692 144.997 89.6692ZM127.7 110.36C123.158 110.36 119.462 106.536 119.462 101.834C119.462 97.1332 123.158 93.3083 127.7 93.3083C132.242 93.3083 135.937 97.1332 135.937 101.834C135.937 106.536 132.242 110.36 127.7 110.36ZM143.649 103.461H139.345C139.414 102.928 139.453 102.386 139.453 101.834C139.453 100.713 139.302 99.6285 139.027 98.597H146.485V100.526C146.485 102.144 145.213 103.461 143.649 103.461Z" fill="#FEFBFB"/>
<path d="M57.8551 95.8855C54.6859 95.8855 52.1075 98.5542 52.1075 101.834C52.1075 105.115 54.6859 107.783 57.8551 107.783C61.0244 107.783 63.6027 105.115 63.6027 101.834C63.6027 98.5542 61.0244 95.8855 57.8551 95.8855ZM57.8551 104.145C56.6244 104.145 55.6232 103.108 55.6232 101.835C55.6232 100.561 56.6244 99.5246 57.8551 99.5246C59.0858 99.5246 60.0871 100.561 60.0871 101.835C60.0871 103.108 59.0858 104.145 57.8551 104.145Z" fill="#FEFBFB"/>
<path d="M127.7 95.8855C124.53 95.8855 121.952 98.5542 121.952 101.834C121.952 105.115 124.53 107.783 127.7 107.783C130.869 107.783 133.447 105.115 133.447 101.834C133.447 98.5542 130.869 95.8855 127.7 95.8855ZM127.7 104.145C126.469 104.145 125.468 103.108 125.468 101.835C125.468 100.561 126.469 99.5246 127.7 99.5246C128.93 99.5246 129.932 100.561 129.932 101.835C129.932 103.108 128.93 104.145 127.7 104.145Z" fill="#FEFBFB"/>
<path d="M90.0005 77.373C89.0297 77.373 88.2427 78.1874 88.2427 79.1925C88.2427 80.1975 89.0297 81.0119 90.0005 81.0119H91.2193C92.19 81.0119 92.9771 80.1975 92.9771 79.1925C92.9771 78.1874 92.19 77.373 91.2193 77.373H90.0005Z" fill="#FEFBFB"/>
<path d="M63.7286 77.373C62.7578 77.373 61.9708 78.1874 61.9708 79.1925C61.9708 80.1975 62.7578 81.0119 63.7286 81.0119H64.9473C65.9181 81.0119 66.7052 80.1975 66.7052 79.1925C66.7052 78.1874 65.9181 77.373 64.9473 77.373H63.7286Z" fill="#FEFBFB"/>
</svg>
