<svg width="121" height="121" viewBox="0 0 121 121" fill="none" xmlns="http://www.w3.org/2000/svg">
<path d="M87.9823 32.5778L115.548 45.1077V110.263L80.4644 95.2274L40.3686 110.263L5.28486 95.2274V30.0718L30.3447 40.0957L87.9823 32.5778ZM80.4644 95.2274V60.1436V95.2274ZM40.3686 110.263V60.1436V110.263ZM60.4165 81.5598C60.4165 81.5598 30.3447 57.6376 30.3447 35.0838C30.3447 16.2889 45.3806 5.01196 60.4165 5.01196C75.4524 5.01196 90.4883 16.2889 90.4883 35.0838C90.4883 57.6376 60.4165 81.5598 60.4165 81.5598ZM65.4285 35.0838C65.4285 33.7545 64.9004 32.4797 63.9605 31.5398C63.0206 30.5999 61.7458 30.0718 60.4165 30.0718C59.0873 30.0718 57.8124 30.5999 56.8725 31.5398C55.9326 32.4797 55.4045 33.7545 55.4045 35.0838C55.4045 36.413 55.9326 37.6879 56.8725 38.6278C57.8124 39.5677 59.0873 40.0957 60.4165 40.0957C61.7458 40.0957 63.0206 39.5677 63.9605 38.6278C64.9004 37.6879 65.4285 36.413 65.4285 35.0838Z" stroke="#F7A002" stroke-width="7"/>
<rect x="0.772888" y="0.5" width="119.287" height="119.287" stroke="url(#paint0_linear)"/>
<defs>
<linearGradient id="paint0_linear" x1="60.4165" y1="0" x2="60.4165" y2="120.287" gradientUnits="userSpaceOnUse">
<stop stop-color="white"/>
<stop offset="1" stop-color="white" stop-opacity="0"/>
</linearGradient>
</defs>
</svg>
