<svg width="121" height="121" viewBox="0 0 121 121" fill="none" xmlns="http://www.w3.org/2000/svg">
<rect width="120.29" height="120.29" fill="white"/>
<path d="M119.522 27.2656C119.265 25.6395 118.521 24.1295 117.387 22.936C116.254 21.7425 114.784 20.9219 113.173 20.5828L93.5589 16.2725C91.4556 15.8137 89.2782 15.812 87.1741 16.2674C85.07 16.7228 83.0883 17.6247 81.3628 18.9122L23.3897 61.1473L7.1506 60.479C5.84517 60.4323 4.5582 60.7981 3.47249 61.5244C2.38678 62.2508 1.55753 63.3007 1.10252 64.5252C0.647507 65.7496 0.589873 67.0863 0.9378 68.3454C1.28573 69.6045 2.02153 70.7219 3.04069 71.539L19.7476 84.6707C21.7525 87.1099 23.089 86.6421 56.269 68.5652L59.3765 100.041C59.4282 100.9 59.7226 101.726 60.2253 102.424C60.7281 103.122 61.4186 103.663 62.2167 103.984C62.7909 104.211 63.4036 104.324 64.021 104.318C65.2638 104.28 66.4507 103.793 67.3624 102.948L75.3483 95.6639C76.1435 94.9271 76.6821 93.9553 76.8854 92.8905L84.203 53.128C96.1318 46.4452 107.426 40.1634 115.478 35.5857C116.919 34.7753 118.078 33.5445 118.801 32.0577C119.523 30.571 119.775 28.8991 119.522 27.2656V27.2656ZM112.17 29.7717C103.817 34.5164 92.1221 41.1658 79.5585 48.0491L78.1885 48.8176L70.4031 91.153L65.4912 95.6304L61.8157 57.8727L57.3717 60.1449C33.4139 73.5104 25.428 77.3865 22.6881 78.5894L8.32008 67.1952L25.2943 67.9303L85.4393 24.2918C86.3847 23.585 87.4686 23.0857 88.6202 22.8266C89.7718 22.5675 90.9651 22.5544 92.1221 22.7882L111.669 26.9983C111.97 27.0529 112.246 27.2023 112.457 27.4247C112.667 27.6471 112.801 27.9308 112.839 28.2346C112.908 28.5286 112.88 28.837 112.759 29.1139C112.639 29.3908 112.432 29.6214 112.17 29.7717V29.7717Z" fill="#F7A002"/>
<path d="M23.3897 41.901L35.2851 45.2424L40.7649 41.2661L27.3994 37.3901L33.4139 33.7146L51.6913 33.18L59.3765 27.5999L33.4139 28.4018C32.5954 28.3575 31.7819 28.5551 31.0749 28.9698L22.2871 34.0821C21.5605 34.5125 20.9777 35.1484 20.6119 35.9095C20.2462 36.6706 20.114 37.523 20.2319 38.3592C20.3498 39.1953 20.7126 39.9779 21.2746 40.6082C21.8365 41.2385 22.5725 41.6883 23.3897 41.901V41.901Z" fill="#F7A002"/>
</svg>
