<svg width="173" height="161" viewBox="0 0 173 161" fill="none" xmlns="http://www.w3.org/2000/svg">
<path d="M169 80.5C169 122.484 132.339 157 86.5 157C40.6608 157 4 122.484 4 80.5C4 38.5162 40.6608 4 86.5 4C132.339 4 169 38.5162 169 80.5Z" fill="#F7A002" stroke="#F7F7F7" stroke-width="8"/>
<g clip-path="url(#clip0)">
<path d="M146.442 77.423C139.381 72.4694 129.396 71.4302 122.263 71.4302H120.7L95.8422 59.8302C92.7459 58.3844 89.3025 57.6211 85.886 57.6211H63.9432C61.811 57.6211 59.7365 58.047 57.7764 58.8862L34.9964 68.6492C33.7457 69.1856 32.422 69.4576 31.0608 69.4576H29.5448C26.3523 69.4567 23.7539 72.0551 23.7539 75.2486V87.7782C23.7539 90.5439 25.7246 92.9347 28.4393 93.4624L35.7433 94.8832C36.646 100.449 41.4833 104.713 47.2992 104.713C51.65 104.713 55.451 102.326 57.4698 98.7938H119.983C122.002 102.326 125.803 104.713 130.154 104.713C134.504 104.713 138.306 102.326 140.325 98.7938H143.963C147.156 98.7938 149.754 96.1964 149.754 93.0029V83.7888C149.754 81.2577 148.516 78.8775 146.442 77.423ZM94.2811 63.1755L111.971 71.4302H85.6303L76.9574 61.3125H85.885C88.767 61.3125 91.6702 61.9566 94.2811 63.1755ZM72.096 61.3125L80.7689 71.4302H77.6399C76.4498 71.4302 75.3222 70.9121 74.5474 70.0075L67.0944 61.3125H72.096ZM58.8166 95.1024C58.9406 94.4208 59.0088 93.72 59.0088 93.0029C59.0088 92.2166 58.93 91.4292 58.7743 90.6631C58.5714 89.6643 57.5976 89.0193 56.5988 89.2211C55.5991 89.424 54.954 90.3987 55.1569 91.3975C55.2636 91.9214 55.3174 92.4617 55.3174 93.0029C55.3174 97.424 51.7202 101.02 47.2992 101.02C42.8781 101.02 39.2819 97.424 39.2819 93.0029C39.2819 88.5819 42.8781 84.9847 47.2992 84.9847C48.4191 84.9847 49.5006 85.2106 50.5157 85.6556C51.4482 86.0642 52.5373 85.6393 52.9468 84.7059C53.3564 83.7725 52.9315 82.6843 51.998 82.2747C50.5128 81.6239 48.9315 81.2932 47.2992 81.2932C41.4833 81.2932 36.646 85.5566 35.7433 91.1226L29.1439 89.8392C28.1596 89.6479 27.4444 88.7809 27.4444 87.7782V81.0395H29.5448C30.5638 81.0395 31.3905 80.2127 31.3905 79.1938C31.3905 78.1748 30.5638 77.348 29.5448 77.348H27.4453V75.2486C27.4453 74.0902 28.3874 73.1491 29.5448 73.1491H31.0608C32.9248 73.1491 34.7378 72.7761 36.4508 72.0426L59.2299 62.2796C60.2287 61.8518 61.266 61.5682 62.3282 61.424L71.7452 72.4098C73.2217 74.1334 75.3703 75.1217 77.6399 75.1217H122.263C127.195 75.1217 135.996 75.6994 142.516 79.3206H141.991C140.971 79.3206 140.145 80.1474 140.145 81.1664C140.145 82.1863 140.971 83.0121 141.991 83.0121H145.987C146.036 83.2658 146.063 83.5254 146.063 83.7888V87.212H140.325C138.306 83.6802 134.505 81.2942 130.154 81.2942C125.803 81.2942 122.002 83.6802 119.983 87.212H116.346C115.326 87.212 114.5 88.0378 114.5 89.0577C114.5 90.0767 115.326 90.9034 116.346 90.9034H118.637C118.513 91.585 118.444 92.2858 118.444 93.0029C118.444 93.72 118.513 94.4208 118.637 95.1024H58.8166ZM130.154 101.02C125.733 101.02 122.136 97.424 122.136 93.0029C122.136 88.5819 125.733 84.9847 130.154 84.9847C134.575 84.9847 138.172 88.5819 138.172 93.0029C138.172 97.424 134.575 101.02 130.154 101.02ZM143.963 95.1024H141.672C141.796 94.4208 141.864 93.72 141.864 93.0029C141.864 92.2858 141.796 91.585 141.672 90.9034H146.063V93.0029C146.063 94.1603 145.121 95.1024 143.963 95.1024Z" fill="#FFFDFD"/>
<path d="M108.455 87.2119H83.7317L79.551 81.6373C78.4628 80.1867 76.7305 79.3206 74.9175 79.3206H67.0271C66.3272 79.3206 65.6889 79.7157 65.3765 80.3415C65.0631 80.9663 65.1304 81.7152 65.5505 82.2737L70.2849 88.5866C71.3722 90.0372 73.1044 90.9033 74.9175 90.9033H108.455C109.474 90.9033 110.3 90.0766 110.3 89.0576C110.3 88.0377 109.474 87.2119 108.455 87.2119ZM74.9175 87.2119C74.2599 87.2119 73.6322 86.8976 73.2381 86.3717L70.7185 83.012H74.9175C75.575 83.012 76.2027 83.3263 76.5978 83.8522L79.1174 87.2119H74.9175Z" fill="#FFFEFE"/>
<path d="M47.2992 89.1846C45.1939 89.1846 43.4809 90.8976 43.4809 93.0029C43.4809 95.1081 45.1939 96.8212 47.2992 96.8212C49.4054 96.8212 51.1175 95.1081 51.1175 93.0029C51.1175 90.8976 49.4054 89.1846 47.2992 89.1846Z" fill="white"/>
<path d="M130.154 89.1846C128.049 89.1846 126.336 90.8976 126.336 93.0029C126.336 95.1081 128.049 96.8212 130.154 96.8212C132.259 96.8212 133.972 95.1081 133.972 93.0029C133.972 90.8976 132.259 89.1846 130.154 89.1846Z" fill="white"/>
</g>
<defs>
<clipPath id="clip0">
<rect width="126" height="126" fill="white" transform="translate(24 18)"/>
</clipPath>
</defs>
</svg>
