<svg width="109" height="106" viewBox="0 0 109 106" fill="none" xmlns="http://www.w3.org/2000/svg">
<g clip-path="url(#clip0)">
<path d="M104.883 95.9406L97.5299 74.2H89.4618L93.9423 95.4H15.0581L19.5385 74.2H11.4705L4.11239 95.9406C2.24598 101.474 5.55389 106 11.4705 106H97.5299C103.446 106 106.754 101.474 104.883 95.9406ZM81.3937 26.5C81.3937 19.4718 78.5603 12.7314 73.5168 7.76167C68.4733 2.79196 61.6328 0 54.5002 0C47.3676 0 40.5271 2.79196 35.4836 7.76167C30.44 12.7314 27.6066 19.4718 27.6066 26.5C27.6066 51.8075 54.5002 79.5 54.5002 79.5C54.5002 79.5 81.3937 51.8075 81.3937 26.5ZM39.9777 26.818C39.9777 18.9157 46.4751 12.5133 54.5002 12.5133C58.3511 12.5133 62.0443 14.0207 64.7673 16.7038C67.4902 19.387 69.02 23.0261 69.02 26.8207C69.02 30.6152 67.4902 34.2543 64.7673 36.9375C62.0443 39.6206 58.3511 41.128 54.5002 41.128C50.6486 41.128 46.9547 39.6203 44.2312 36.9367C41.5077 34.2531 39.9777 30.6132 39.9777 26.818V26.818Z" fill="white"/>
</g>
<defs>
<clipPath id="clip0">
<rect width="107.574" height="106" fill="white" transform="translate(0.712891)"/>
</clipPath>
</defs>
</svg>
