<svg width="64" height="64" viewBox="0 0 64 64" fill="none" xmlns="http://www.w3.org/2000/svg">
<path d="M51 35.5C49.7144 35.5 48.4577 35.8812 47.3888 36.5954C46.3199 37.3097 45.4868 38.3248 44.9948 39.5126C44.5028 40.7003 44.3741 42.0072 44.6249 43.2681C44.8757 44.529 45.4948 45.6872 46.4038 46.5962C47.3128 47.5052 48.471 48.1243 49.7319 48.3751C50.9928 48.6259 52.2997 48.4972 53.4874 48.0052C54.6752 47.5132 55.6903 46.6801 56.4046 45.6112C57.1188 44.5423 57.5 43.2856 57.5 42C57.4981 40.2767 56.8126 38.6245 55.594 37.406C54.3755 36.1874 52.7233 35.502 51 35.5V35.5ZM51 45.5C50.3078 45.5 49.6311 45.2947 49.0555 44.9101C48.4799 44.5256 48.0313 43.9789 47.7664 43.3394C47.5015 42.6999 47.4322 41.9961 47.5673 41.3172C47.7023 40.6383 48.0356 40.0146 48.5251 39.5251C49.0146 39.0356 49.6383 38.7023 50.3172 38.5673C50.9961 38.4322 51.6999 38.5015 52.3394 38.7664C52.9789 39.0313 53.5256 39.4799 53.9102 40.0555C54.2947 40.6311 54.5 41.3078 54.5 42C54.4989 42.9279 54.1299 43.8176 53.4737 44.4737C52.8176 45.1299 51.9279 45.4989 51 45.5V45.5Z" fill="#F7A002"/>
<path d="M15 35.5C13.7144 35.5 12.4577 35.8812 11.3888 36.5954C10.3199 37.3097 9.48676 38.3248 8.99479 39.5126C8.50282 40.7003 8.37409 42.0072 8.6249 43.2681C8.8757 44.529 9.49477 45.6872 10.4038 46.5962C11.3128 47.5052 12.471 48.1243 13.7319 48.3751C14.9928 48.6259 16.2997 48.4972 17.4874 48.0052C18.6752 47.5132 19.6903 46.6801 20.4046 45.6112C21.1188 44.5423 21.5 43.2856 21.5 42C21.498 40.2767 20.8126 38.6245 19.594 37.406C18.3755 36.1874 16.7233 35.502 15 35.5V35.5ZM15 45.5C14.3078 45.5 13.6311 45.2947 13.0555 44.9101C12.4799 44.5256 12.0313 43.9789 11.7664 43.3394C11.5015 42.6999 11.4322 41.9961 11.5673 41.3172C11.7023 40.6383 12.0356 40.0146 12.5251 39.5251C13.0146 39.0356 13.6383 38.7023 14.3172 38.5673C14.9961 38.4322 15.6999 38.5015 16.3394 38.7664C16.9789 39.0313 17.5256 39.4799 17.9101 40.0555C18.2947 40.6311 18.5 41.3078 18.5 42C18.4989 42.9279 18.1299 43.8176 17.4737 44.4737C16.8176 45.1299 15.9279 45.4989 15 45.5V45.5Z" fill="#F7A002"/>
<path d="M62.2616 30.523L50.7215 28.4795L41.4922 19.3656C40.9319 18.8093 40.1737 18.498 39.3841 18.5H16.1327C15.2412 18.4981 14.3693 18.7619 13.6283 19.2578C12.8873 19.7536 12.3109 20.459 11.9726 21.2839L8.99613 28.5H3.5C2.70463 28.5009 1.94211 28.8173 1.3797 29.3797C0.817294 29.9421 0.500926 30.7046 0.5 31.5V40.5C0.500926 41.2954 0.817294 42.0579 1.3797 42.6203C1.94211 43.1827 2.70463 43.4991 3.5 43.5H7.14313C6.92125 42.3428 6.95772 41.1509 7.24992 40.0095C7.54213 38.8681 8.08287 37.8053 8.83348 36.897C9.5841 35.9888 10.5261 35.2576 11.5921 34.7557C12.658 34.2538 13.8218 33.9935 15 33.9935C16.1782 33.9935 17.342 34.2538 18.4079 34.7557C19.4739 35.2576 20.4159 35.9888 21.1665 36.897C21.9171 37.8053 22.4579 38.8681 22.7501 40.0095C23.0423 41.1509 23.0788 42.3428 22.8569 43.5H43.1431C42.9212 42.3428 42.9577 41.1509 43.2499 40.0095C43.5421 38.8681 44.0829 37.8053 44.8335 36.897C45.5841 35.9888 46.5261 35.2576 47.5921 34.7557C48.658 34.2538 49.8218 33.9935 51 33.9935C52.1782 33.9935 53.342 34.2538 54.4079 34.7557C55.4739 35.2576 56.4159 35.9888 57.1665 36.897C57.9171 37.8053 58.4579 38.8681 58.7501 40.0095C59.0423 41.1509 59.0788 42.3428 58.8569 43.5H59C60.1931 43.4987 61.3369 43.0242 62.1805 42.1805C63.0241 41.3369 63.4987 40.1931 63.5 39V32C63.5 31.6476 63.3759 31.3064 63.1494 31.0363C62.923 30.7662 62.6087 30.5845 62.2616 30.523ZM17.125 27C17.125 27.3978 16.967 27.7794 16.6857 28.0607C16.4044 28.342 16.0228 28.5 15.625 28.5H12.1167C11.9935 28.5 11.8721 28.4697 11.7634 28.4116C11.6547 28.3535 11.562 28.2696 11.4934 28.1672C11.4249 28.0647 11.3826 27.947 11.3704 27.8244C11.3582 27.7017 11.3764 27.5779 11.4234 27.464L13.5007 22.428C13.614 22.1534 13.8063 21.9186 14.0532 21.7534C14.3001 21.5882 14.5904 21.5 14.8875 21.5H15.625C16.0228 21.5 16.4044 21.658 16.6857 21.9394C16.967 22.2207 17.125 22.6022 17.125 23V27ZM30 27C30 27.3978 29.842 27.7794 29.5607 28.0607C29.2794 28.342 28.8978 28.5 28.5 28.5H21.125C20.7272 28.5 20.3456 28.342 20.0643 28.0607C19.783 27.7794 19.625 27.3978 19.625 27V23C19.625 22.6022 19.783 22.2207 20.0643 21.9394C20.3456 21.658 20.7272 21.5 21.125 21.5H28.5C28.8978 21.5 29.2794 21.658 29.5607 21.9394C29.842 22.2207 30 22.6022 30 23V27ZM36 34H34C33.6022 34 33.2206 33.842 32.9393 33.5607C32.658 33.2794 32.5 32.8978 32.5 32.5C32.5 32.1022 32.658 31.7207 32.9393 31.4394C33.2206 31.158 33.6022 31 34 31H36C36.3978 31 36.7794 31.158 37.0607 31.4394C37.342 31.7207 37.5 32.1022 37.5 32.5C37.5 32.8978 37.342 33.2794 37.0607 33.5607C36.7794 33.842 36.3978 34 36 34ZM46.4931 28.5H34C33.6022 28.5 33.2206 28.342 32.9393 28.0607C32.658 27.7794 32.5 27.3978 32.5 27V23C32.5 22.6022 32.658 22.2207 32.9393 21.9394C33.2206 21.658 33.6022 21.5 34 21.5H40.544C40.9351 21.5 41.3107 21.6528 41.5908 21.9258L47.0165 27.2133C47.1232 27.3174 47.1964 27.4509 47.2269 27.5969C47.2573 27.7428 47.2436 27.8945 47.1874 28.0326C47.1312 28.1707 47.0352 28.2889 46.9115 28.3721C46.7879 28.4554 46.6422 28.4999 46.4931 28.5V28.5Z" fill="#F7A002"/>
<path d="M33.4231 13.5256C33.3235 13.227 33.1325 12.9672 32.8771 12.7831C32.6217 12.5991 32.3149 12.5 32.0001 12.5H24.0001C23.6853 12.5 23.3786 12.5989 23.1232 12.7829C22.8678 12.9668 22.6767 13.2265 22.5771 13.525L21.4189 17H34.5814L33.4231 13.5256Z" fill="#F7A002"/>
</svg>
