<svg width="230" height="231" viewBox="0 0 230 231" fill="none" xmlns="http://www.w3.org/2000/svg">
<ellipse cx="115" cy="115.5" rx="115" ry="115.5" fill="#F7A002"/>
<g clip-path="url(#clip0)">
<path d="M108.655 135.074L98.259 157.945C97.5466 159.512 97.8809 161.357 99.0987 162.575C100.312 163.788 102.156 164.13 103.729 163.415L126.599 153.019C127.956 152.402 129.18 151.555 130.234 150.5C135.482 145.252 174.104 106.63 179.175 101.559L160.114 82.4988L111.174 131.44C110.119 132.494 109.272 133.717 108.655 135.074Z" fill="white"/>
<path d="M194.982 66.6915C190.535 62.2436 183.507 61.6642 178.401 65.2479C177.313 66.011 177.876 65.5571 166.039 76.7402L184.934 95.6347L195.028 84.9507C200.029 79.9003 200.014 71.7231 194.982 66.6915Z" fill="white"/>
<path d="M136.077 156.342C134.319 158.099 132.281 159.512 130.018 160.54L107.148 170.936C102.561 173.021 97.0113 172.173 93.2566 168.417C89.6245 164.785 88.6121 159.203 90.7376 154.526L101.133 131.656C102.162 129.393 103.574 127.354 105.331 125.598C165.164 65.7653 155.167 75.646 163.432 67.8379V49.1309C163.432 46.8495 161.582 45 159.301 45H71.1758C68.8944 45 67.0449 46.8495 67.0449 49.1309V67.3066H62.3633C60.0819 67.3066 58.2324 69.1562 58.2324 71.4375C58.2324 73.7188 60.0819 75.5684 62.3633 75.5684H67.0449V89.3379H62.3633C60.0819 89.3379 58.2324 91.1874 58.2324 93.4688C58.2324 95.7501 60.0819 97.5996 62.3633 97.5996H67.0449V111.369H62.3633C60.0819 111.369 58.2324 113.219 58.2324 115.5C58.2324 117.781 60.0819 119.631 62.3633 119.631H67.0449V133.4H62.3633C60.0819 133.4 58.2324 135.25 58.2324 137.531C58.2324 139.813 60.0819 141.662 62.3633 141.662H67.0449V155.432H62.3633C60.0819 155.432 58.2324 157.281 58.2324 159.562C58.2324 161.844 60.0819 163.693 62.3633 163.693H67.0449V181.869C67.0449 184.15 68.8944 186 71.1758 186H159.301C161.582 186 163.432 184.15 163.432 181.869V128.986L136.077 156.342ZM102.02 67.3066H141.676C143.957 67.3066 145.807 69.1562 145.807 71.4375C145.807 73.7188 143.957 75.5684 141.676 75.5684H102.02C99.7382 75.5684 97.8887 73.7188 97.8887 71.4375C97.8887 69.1562 99.7382 67.3066 102.02 67.3066ZM102.02 89.3379H128.457C130.738 89.3379 132.588 91.1874 132.588 93.4688C132.588 95.7501 130.738 97.5996 128.457 97.5996H102.02C99.7382 97.5996 97.8887 95.7501 97.8887 93.4688C97.8887 91.1874 99.7382 89.3379 102.02 89.3379Z" fill="white"/>
</g>
<defs>
<clipPath id="clip0">
<rect width="141" height="141" fill="white" transform="translate(58 45)"/>
</clipPath>
</defs>
</svg>
